<svg enable-background="new 0 0 328.197 328.197" height="512" viewBox="0 0 328.197 328.197" width="512" xmlns="http://www.w3.org/2000/svg"><g fill="#fff"><path d="m220.353 253.075c-3.607-3.589-8.486-5.607-13.574-5.614l.04.04c-5.103-.002-9.996 2.028-13.6 5.64-7.511 7.485-7.532 19.642-.047 27.153.016.016.031.031.047.047 7.485 7.511 19.642 7.532 27.153.047.016-.016.031-.031.047-.047 7.511-7.547 7.482-19.755-.066-27.266zm-9.374 17.866h-.16c-2.306 2.318-6.054 2.328-8.372.023-2.318-2.306-2.328-6.054-.023-8.372s6.054-2.328 8.372-.023c1.16 1.154 1.791 2.737 1.743 4.372-.001 1.482-.558 2.909-1.56 4z"/><path d="m314.059 132.901v.16l-.36-.4c-11.072-10.982-28.928-10.982-40 0-10.982 11.072-10.982 28.928 0 40 11.063 11.004 28.937 11.004 40 0 10.946-10.936 11.107-28.628.36-39.76zm-9.88 30.48c-5.884 5.858-15.396 5.858-21.28 0-5.858-5.884-5.858-15.396 0-21.28 5.871-5.876 15.393-5.881 21.27-.01l.01.01.28.28c5.598 5.925 5.474 15.226-.28 21z"/><path d="m299.852 255.109c-.756-.676-1.657-1.171-2.633-1.448l-4-1.12-5.04-1.2c-29.76-7.04-31.44-24-33-39.52-1-10-1.96-19.6-8-28-12.68-17.2-8.6-30.12-4.48-43.12 3.183-8.396 4.809-17.301 4.8-26.28-1.56-36-18.64-46.52-39-59.08-11.617-6.472-22.113-14.779-31.08-24.6-2.478-3.305-4.534-6.906-6.12-10.72-2.28-4.92-4.36-10.2-6.32-15.28-.911-3.004-3.791-4.968-6.92-4.72-90.491 6.876-158.273 85.807-151.397 176.298s85.807 158.273 176.298 151.397c46.309-3.519 88.966-26.47 117.419-63.175 2.459-2.75 2.223-6.973-.527-9.432zm-62.713 44.232h.08c-74.837 36.748-165.295 5.872-202.044-68.966-36.748-74.837-5.871-165.295 68.966-202.043 15.71-7.714 32.641-12.638 50.038-14.551 1.64 4 3.32 8.32 5 12 2.116 4.952 4.873 9.605 8.2 13.84 9.848 10.901 21.414 20.116 34.24 27.28 17.08 10.56 31.4 19.4 32.64 48.32-.124 7.442-1.545 14.806-4.2 21.76-5.12 16.12-10.2 32.24 6.48 55.04 4 5.32 4.72 13.12 5.52 21.24 2 20 4 41.36 41.48 50.8-13.035 14.654-28.794 26.637-46.4 35.28z"/><path d="m109.179 104.701-2.4-20.24c-.431-3.667-3.753-6.291-7.42-5.86s-6.291 3.753-5.86 7.42l2.4 20.24c.431 3.667 3.753 6.291 7.42 5.86s6.291-3.753 5.86-7.42z"/><path d="m64.819 199.701-2.4-20.24c-.431-3.667-3.753-6.291-7.42-5.86s-6.291 3.753-5.86 7.42l2.4 20.24c.431 3.667 3.753 6.291 7.42 5.86s6.291-3.753 5.86-7.42z"/><path d="m186.619 124.021-16.48-12c-2.993-2.209-7.211-1.573-9.42 1.42s-1.573 7.211 1.42 9.42l16.48 12c2.993 2.209 7.211 1.573 9.42-1.42s1.573-7.211-1.42-9.42z"/><path d="m147.835 46.757c-.005-.005-.011-.011-.016-.016-6.775-6.815-17.792-6.848-24.607-.073-.024.024-.049.048-.073.073-6.815 6.806-6.822 17.849-.016 24.664l.016.016c6.642 6.667 17.381 6.844 24.24.4l.44-.4c6.815-6.806 6.822-17.849.016-24.664zm-9.456 15.064v.2c-1.555 1.525-4.045 1.525-5.6 0-1.602-1.522-1.667-4.053-.145-5.655.047-.05.095-.098.145-.145l-.2-.2c1.602-1.602 4.198-1.602 5.8 0s1.602 4.198 0 5.8z"/><path d="m253.475 30.677c-.005-.005-.011-.011-.016-.016-3.273-3.286-7.722-5.129-12.36-5.12-4.624.002-9.057 1.844-12.32 5.12-6.815 6.806-6.822 17.849-.016 24.664.005.005.011.011.016.016 6.642 6.666 17.381 6.844 24.24.4l.44-.4c6.815-6.806 6.822-17.849.016-24.664zm-9.096 15.464-.2-.2v.2c-1.555 1.525-4.045 1.525-5.6 0-1.522-1.602-1.457-4.133.145-5.655s4.133-1.457 5.655.145c1.467 1.544 1.467 3.966 0 5.51z"/><path d="m151.059 184.701h-.04c-8.574-8.565-22.466-8.565-31.04 0-8.435 8.408-8.613 22.014-.4 30.64l.4.44c8.583 8.583 22.498 8.583 31.08 0s8.583-22.497 0-31.08zm-9.48 21.6c-3.339 3.252-8.661 3.252-12 0l-.28-.24c-3.165-3.412-3.059-8.717.24-12 3.348-3.231 8.652-3.231 12 0 3.252 3.339 3.252 8.661 0 12z"/><path d="m89.732 131.294c-.024-.024-.048-.049-.073-.073-6.775-6.815-17.792-6.848-24.607-.073-.024.024-.049.048-.073.073-6.815 6.775-6.848 17.792-.073 24.607.024.024.048.049.073.073 6.775 6.815 17.792 6.848 24.607.073.024-.024.049-.048.073-.073 6.815-6.775 6.848-17.792.073-24.607zm-9.553 15.207c-1.578 1.546-4.11 1.52-5.657-.058-1.546-1.578-1.52-4.11.058-5.657 1.578-1.546 4.11-1.52 5.657.058.717.732 1.126 1.712 1.142 2.737.017 1.097-.417 2.152-1.2 2.92z"/><path d="m132.659 277.861-16.48-12c-2.993-2.209-7.211-1.573-9.42 1.42s-1.573 7.211 1.42 9.42l16.48 12c2.993 2.209 7.211 1.573 9.42-1.42s1.573-7.211-1.42-9.42z"/></g></svg>